<?xml version="1.0" encoding="utf-8"?>
<!-- Generator: Adobe Illustrator 27.0.1, SVG Export Plug-In . SVG Version: 6.00 Build 0)  -->
<svg version="1.1" id="Ebene_1" xmlns="http://www.w3.org/2000/svg" xmlns:xlink="http://www.w3.org/1999/xlink" x="0px" y="0px"
	 viewBox="0 0 100 14" style="enable-background:new 0 0 100 14;" xml:space="preserve">
<style type="text/css">
	.st0{fill:#FFFFFF;}
</style>
<g>
	<g>
		<path class="st0" d="M11.9,4.9c0,2.7-2,4.6-4.6,4.6H3v4.2H0V0.3h3h4.3C9.9,0.3,11.9,2.2,11.9,4.9 M8.9,4.9C8.9,3.8,8,3,6.9,3H3
			v3.8h3.9C8,6.8,8.9,6,8.9,4.9"/>
		<path class="st0" d="M26.7,13.6v0.2h-3.2l-3-4.6h-3.2v4.6h-3V0.3h3h4.1c2.6,0,4.6,1.8,4.6,4.5c0,1.9-1,3.3-2.5,4L26.7,13.6z
			 M17.2,6.5H21c1.1,0,2-0.7,2-1.8c0-1.1-0.8-1.7-2-1.7h-3.7V6.5z"/>
		<path class="st0" d="M27.7,7c0-3.8,2.8-7,7.1-7s7.1,3.1,7.1,7c0,3.8-2.8,7-7.1,7S27.7,10.8,27.7,7 M38.8,7c0-2.3-1.5-4.1-4-4.1
			c-2.5,0-4,1.8-4,4.1c0,2.3,1.5,4.1,4,4.1C37.3,11.1,38.8,9.3,38.8,7"/>
		<polygon class="st0" points="54.5,3.1 49.9,3.1 49.9,13.7 46.9,13.7 46.9,3.1 42.4,3.1 42.4,0.3 49.9,0.3 54.5,0.3 		"/>
		<polygon class="st0" points="67.3,10.9 67.3,13.7 57.1,13.7 56.5,13.7 56.5,0.3 59.5,0.3 67.1,0.3 67.1,3.1 59.5,3.1 59.5,5.6 
			64.3,5.6 64.3,8.4 59.5,8.4 59.5,10.9 		"/>
		<polygon class="st0" points="83.7,0.3 83.7,13.7 80.6,13.7 80.6,5.3 76.8,10.5 76.5,10.5 72.7,5.3 72.7,13.7 69.7,13.7 69.7,0.3 
			72.2,0.3 76.7,6.3 81.1,0.3 		"/>
	</g>
	<g>
		<path class="st0" d="M100,13.5v0.2h-3.2l-0.9-2.3h-6.2l-0.9,2.3h-3.2v-0.2l5.7-13.3h3.2L100,13.5z M94.7,8.7l-2-5.1l-2,5.1H94.7z"
			/>
	</g>
</g>
</svg>
