<svg xmlns="http://www.w3.org/2000/svg" viewBox="0 0 8016.88 625.45"><title>Protema-Logo-Web</title><polygon points="120.57 450.43 155.09 450.43 155.09 484.94 120.57 484.94 120.57 450.43 120.57 450.43" style="fill:#1a1a1a"/><polygon points="260.25 463.88 289.52 445.59 307.81 474.86 278.54 493.15 260.25 463.88 260.25 463.88" style="fill:#1a1a1a"/><polygon points="396.26 345.81 428.7 334 440.51 366.44 408.06 378.24 396.26 345.81 396.26 345.81" style="fill:#1a1a1a"/><polygon points="560.26 484.94 560.26 450.43 594.77 450.43 594.77 484.94 560.26 484.94 560.26 484.94" style="fill:#1a1a1a"/><polygon points="120.57 303.87 155.06 303.87 155.06 338.35 120.57 338.35 120.57 303.87 120.57 303.87" style="fill:#1a1a1a"/><polygon points="267.14 303.87 301.65 303.87 301.65 338.38 267.14 338.38 267.14 303.87 267.14 303.87" style="fill:#1a1a1a"/><polygon points="475.82 408.02 493.08 378.14 522.97 395.39 505.71 425.29 475.82 408.02 475.82 408.02" style="fill:#1a1a1a"/><polygon points="565.11 328.99 531.78 320.05 540.71 286.71 574.05 295.65 565.11 328.99 565.11 328.99" style="fill:#1a1a1a"/><polygon points="120.57 157.31 155.06 157.31 155.06 191.79 120.57 191.79 120.57 157.31 120.57 157.31" style="fill:#1a1a1a"/><polygon points="267.14 157.31 301.65 157.31 301.65 191.82 267.14 191.82 267.14 157.31 267.14 157.31" style="fill:#1a1a1a"/><polygon points="413.7 157.31 448.18 157.31 448.18 191.79 413.7 191.79 413.7 157.31 413.7 157.31" style="fill:#1a1a1a"/><polygon points="553.98 172.69 580.41 150.51 602.6 176.95 576.16 199.13 553.98 172.69 553.98 172.69" style="fill:#1a1a1a"/><polygon points="120.57 10.75 155.06 10.75 155.06 45.23 120.57 45.23 120.57 10.75 120.57 10.75" style="fill:#1a1a1a"/><polygon points="267.14 10.75 301.62 10.75 301.62 45.23 267.14 45.23 267.14 10.75 267.14 10.75" style="fill:#1a1a1a"/><polygon points="413.7 10.75 448.23 10.75 448.23 45.27 413.7 45.27 413.7 10.75 413.7 10.75" style="fill:#1a1a1a"/><polygon points="560.26 10.75 594.77 10.75 594.77 45.27 560.26 45.27 560.26 10.75 560.26 10.75" style="fill:#1a1a1a"/><polygon points="387.46 436.56 419.9 424.75 431.71 457.18 399.27 468.99 387.46 436.56 387.46 436.56" style="fill:#1a1a1a"/><path d="M845.46,14c-.42.45-.87.87-1.32,1.32V18c0,1.74-.25,1.53-1.32,2.65v1.32H841.5c0-2.44-2.52-3.72-4-5.29-1.2,0-9.84,5.95-12.36,6.86-11.69,4-22.15,8-33.51,12.69-2.48,1.53-5,3-7.45,4.55q-8.73,3.16-17.47,6.24l-7.44,5.08q-10.85,5.46-21.69,10.83c-4.58,2.19-7.48,5-12.48,6.65V68.22c-1.78,0-1.32-.45-1.32,1.32-.29,0-7.14,6.78-9.25,7.93V78.8c-2.68,0-4.5-1.78-6.61-2.65,0,2-4.14,6.49-5.37,8q-13.51,9.17-27.1,18.35l-10.42,3.84c-2.23,2-4.46,3.93-6.69,5.91-6.11,4.17-12.27,8.3-18.38,12.48-9.26,7.81-16.32,15.7-27.24,20.16,0,3.72-3.59,9.67-6.32,12-5.25,4.38-11.82,6-17.44,9.26-6.81,4-13.84,9.67-19.87,14.5-9.63,7.6-16.11,17.65-26.45,25.08-2.56,0-2.31,3.18-2.64,5.29-1.66-.21-3.35-.45-5-.66-5.62.75-8.39,5.25-14.83,4.63,0,2,.42.87-.74,1.94-2.6,3.06-5.21,6.07-7.81,9.09-16.86,11.82-33.47,24.87-49.71,37.81-4.42,4-8.84,7.89-13.27,11.82-6.32,4.22-14.05,4.67-20.26,9.13-2.44,2.77-4.92,5.49-7.4,8.26-7.11,5.37-15.5,10-22.24,16.07-7.73,6.9-15.12,14.71-23.51,21.24-12.56,9.63-26.65,17.81-38.89,27.44-2.52,0-3.43-1.45-5.29-2.65v1.32h-2.64v1.32c2.19,0,1.32,2.11,1.32,4-6.24,0-10.87,7.94-14.55,11.9-2.27,0-1.32,4.5-1.32,6.61-4.59,0-9.59,3.26-13.22,5.29,0,1.74.41,1.32-1.32,1.32v-1.32a12.23,12.23,0,0,1-1.16.42c-5.83,2.19-8.31,9.17-12.89,13.22-3.68,2.53-7.4,5-11.07,7.52.45,1.78.87,3.51,1.32,5.29h-1.32v1.32c-1.74-.41-3.51-.87-5.29-1.32H267.6v1.32c-1.77,0-1.32-.46-1.32,1.32-2,0-1.32.78-1.32,2.64,4.17,0,8.76,6,10.58,9.25-4.38,0-8.92-5.74-10.58-9.25h-2.65c0,12.85-38.35,38.35-38.35,41,0,3.1-8.76,4.38-9.26,10.58v1.32h-1.32v1.32c-2,0-2.6-1.36-4-2.64v-1.32c-1.78,0-1.32-.46-1.32,1.32-2.4,0-2,3.92-2.9,5.74-3.43,6.82-9.46,11.49-14.63,17.61-2.31,3.47-4.67,6.94-7,10.41l-.62.62-8.68,7.94c-3.8,2-7.27,3.22-10.95,5.58-7,4.26-17.23,23.43-20.29,24-.7,0-3,.37-3.76.41-5.5-.54-2.6-9.67-2.6-14.14h-4c0,1.66-3.59,2.85-5.21,2.56s-1.12-1.9-2.19-3.06c-5.08-5.58-5.66-15.87-7.52-23.22-1.9-4.92-3.8-9.88-5.71-14.8-1.07-4.13-3-7.06-4.09-11.32-2-7.56-3.39-16.4-7-22.89H99.67V453H98.35c0,1.69-2.19,1.07-1.69.08,3.51-7.31-5.66-12.23-9-18.1-2.07-4.63-4.17-9.3-6.24-14a111.94,111.94,0,0,0-25-30.58l-15.17-8.72c-6.77-4.51-19.3-10-27.23-3.6-13.76,11,4.79,35.12,9.46,44.92,3.1,6.57,5.21,13.56,7.81,20.5,12.81,34.17,24.54,69,34.34,104.5,6.12,22.23,10.7,44.87,17.19,66.65,1.74,5.91,1.74,12.07,4.71,17.44,8.72,15.79,20-4.92,28,7.32h2.64c0-2.36,3.55-3,5.42-3.6l18-5q13.76-13.27,27.44-26.53c3-4.09,5.91-8.22,8.84-12.35q10.91-10.91,21.74-21.82c2.31-3.47,4.59-7,6.9-10.5,2.4-2.31,4.79-4.67,7.19-7,6.53-8.59,11.86-17.35,19.88-25.32,6-6,12.35-8.89,18.51-13.52,2.19-2.52,4.38-5.08,6.57-7.65,2.81-2,5.62-4.09,8.43-6.15,9.38-8.84,18.59-17.36,27.44-26.74,6.32-6.86,12.6-13.76,18.92-20.66,10.62-9.38,29-15.83,34.83-30.09,2,0,3.72,1.74,5.29,2.65,0-1.74,14.34-19.42,16.2-20.66,4.42-3.06,9.26-4.09,13.55-7.81q9.05-8.8,18-17.6c3.84-1.9,7.69-3.84,11.53-5.79,3.93-4.42,7.85-8.88,11.78-13.31,3.59-2.15,7.15-4.34,10.75-6.49,2.56-1.81,3.47-4.09,5.46-6.36,0-2,2.27-1.61,3.89-1.86,6.2-1,13.93-8.26,17.61-13.39,1.08-1.65,2.11-3.35,3.14-5,2.9-2.36,5.78-4.75,8.68-7.11,2.44-1.16,4.88-2.35,7.31-3.55,6.15-5,10.62-11.49,17.56-15.37v-1.32h1.32v-1.32H499c0-2.36-4.55-1.32-6.61-1.32v-1.32H491.1V293c5.82,0,9.75-6,11.9-10.58,2.69,0,4.42,1.65,6.61,2.65,0-3.06,3.06-6.41,4-9.26,2.77,0,5.91,2.15,8.6.33,7.28-5,11.53-13.43,17.48-19.17s13-9.3,18.88-15.54v-1.32c2,0,2.77,1.49,4,2.64v1.32h1.32c1.78-4.83,3.51-9.71,5.29-14.55,1.86,0,3.88,1.94,5.29,2.64v-9.25c2.31.12,4.59.2,6.86.29,1.78-1.78,3.51-3.55,5.29-5.33a109.55,109.55,0,0,1,13.8-11c13.18-8.72,26.21-17.81,39.3-27,5-3.51,10.45-5.91,14.09-11.2,2.15,0,1.32-.83,1.32-2.64h-1.32v-1.32h-2.65c0,2.68-7,7.06-9.25,9.25v1.32h-1.32V174c-5,0,6-14.09,7.07-15.58,2.89-4.05,8.23-5.17,12.23-7.73,6.53-4.46,13.06-9,19.59-13.43,7.07-5.08,12.27-11.19,19.8-15.33C709.1,116.31,719,110.65,728.9,105c4.05-3.43,9-6.11,12.81-9.67,5-4.59,10-9.21,14.91-13.8l16.83-7.69c4.62-2.93,7.15-7.77,11.19-10.91,0-2.19,3.22-1,5-1.28,7.48-1.53,8.14-10.58,14.43-14.39l13.14-5.08c3-2,5.91-4,8.84-6,10-4.67,23.19-8.92,26-20.82C849.89,14.9,847.65,14.45,845.46,14ZM38.85,396.14v1.32H36.2v-5.29l1.32,1.32C39.55,393.5,39.06,394.24,38.85,396.14Zm59.58,61c-.16,1-1.82,1.4-3.3,1s-.25-3.06-.25-3.06,2.32-.33,3.22-.33S98.6,456.14,98.43,457.14Zm60.74,80.49c-2.61,0-3.35-3.39-4-5.29,1.07.29,2.15-.79,3.22-.49.7.17,1.36,1.65,2.07,1.82C160.08,535,159.63,536.31,159.18,537.63Zm10.58-4c-2.94.25-3.93-.54-4-4,.87.57,3.18-.37,3.76.2S169.13,532.63,169.76,533.66ZM426.28,348.54H425v1.32h-2.65v-1.32H421V345.9h2.65v-1.32L425,345.9c1.65,0,1.61.25,2.64,1.32C425.83,347.22,426.28,346.76,426.28,348.54Zm22.49-13.22h-2.64c0-1.78.41-1.32-1.32-1.32v-1.32c4.83,0,11.16-8.38,15-11.07,0-.41,2.73-.87,2.73-1.32C462,327.84,452.21,329.66,448.77,335.32Zm26.45-21.16c-1.86,0-2-1.16-2.64-2.65,2.27,0,5.61-7.15,6.61-9.26,1.32.91,2.64,1.78,4,2.64C480.68,304.9,476.38,312,475.23,314.16Zm58.18-63.47c0,2-1.65,2-1.32,0,2.11,0,2-2.32,2.64-4,.45,1.32.87,2.65,1.32,4Zm6.61-4H538.7V245.4c-1.62,0,.91-6.86,1.32-9.25h1.32v-1.32a12.37,12.37,0,0,0,1.28-.08c7.27-.5,15.12-6.49,19.88-11.82,1.77.91,3.51,1.78,5.29,2.64C567.5,225.57,542.33,244.87,540,246.72Zm33.06-25.12v1.32h-4c0-5.25,22.06-17.6,26.45-22.48h2.64C598.2,203,576.3,219.87,573.08,221.6Zm29.09-23.8h-2.64c.87-.46,1.78-.87,2.64-1.32Zm6.61-2.65v1.32c-4.75,0,4.47-7.31,5.29-7.93h1.33C615.39,191.6,610.93,194,608.78,195.16ZM626,184.58c-2.15,0-3,2.35-4,4h-5.29c0-3.1,3.3-4.67,5.29-6.61.91.45,1.78.87,2.64,1.32C626.38,183.25,626,182.8,626,184.58Zm6.61-11.9c.91,1.78,1.77,3.51,2.64,5.29C632.7,178,632.91,174.74,632.58,172.68ZM799.19,36.47c.88,1,1.19,1,1.28,1.93a1.07,1.07,0,0,1,0,.72,6.64,6.64,0,0,0,0-.72C800.22,37.75,799.49,37.18,799.19,36.47Z" transform="translate(-9.07 -13.99)" style="fill:#dd0a30"/><path d="M852.08,500v-329h77.47c31.62,0,61.45-1.33,89.06,17.36,27.16,18.27,43.63,49.88,43.63,82.82,0,32.51-13.36,63.68-39.18,84.16-27.16,21.81-65.45,20-98,20h-12V500Zm72.13-183.9c15.14,0,32.5.9,47.2-3.55,17.81-5.79,29.84-21.39,29.84-40.52,0-20-13.36-34.28-31.62-39.18-13.35-3.56-32.07-2.68-45.42-2.68H913.08v85.93Z" transform="translate(-9.07 -13.99)" style="fill:#1a1a1a"/><path d="M1104.87,170.91h95.29c31.17.46,60.58,2.23,85.52,23.15,23.61,19.59,38.31,50.32,38.31,81.05,0,24-11.13,53.87-27.17,71.68-16,17.36-36.09,26.71-58.37,31.6L1327.56,500h-75.29l-86.39-126V500h-61Zm94.4,156.73c16,0,36.51-2.22,48.54-13.79A48.42,48.42,0,0,0,1263,278.22c0-14.24-6.23-28.5-17.83-37-14.24-10.69-28.5-11.57-45.42-11.14h-33.83v97.51Z" transform="translate(-9.07 -13.99)" style="fill:#1a1a1a"/><path d="M1692.61,337c0,95.29-77.92,171-171.44,171s-171.44-75.69-171.44-171c0-95.72,76.61-172.3,171.44-172.3S1692.61,241.27,1692.61,337Zm-281.85-1.33c0,61,50.31,113.1,110.41,113.1s110.44-52.1,110.44-113.1c0-61.89-49-111.76-110.44-111.76S1410.76,273.77,1410.76,335.66Z" transform="translate(-9.07 -13.99)" style="fill:#1a1a1a"/><path d="M1777.55,230.13H1717V170.91h183v59.22h-61.45V500h-61Z" transform="translate(-9.07 -13.99)" style="fill:#1a1a1a"/><path d="M1934.66,170.91h176.77v59.22H1995.67v75.7h110.87V365H1995.67v75.7h115.76V500H1934.66Z" transform="translate(-9.07 -13.99)" style="fill:#1a1a1a"/><path d="M2169.63,170.91h83.26l88.17,251.57,89.49-251.57h82.83V500h-61V253.29l-85,246.67h-51.66l-85-246.67V500h-61Z" transform="translate(-9.07 -13.99)" style="fill:#1a1a1a"/><path d="M2683.82,170.91h47.65L2870,500h-67.24l-35.62-85H2650.43l-36.51,85H2546.7Zm59.23,184.79L2707.86,256l-35.17,99.74Z" transform="translate(-9.07 -13.99)" style="fill:#1a1a1a"/><path d="M3530,498.52V222.39h72.53q8.09,0,16.75.74a141.6,141.6,0,0,1,17.3,2.58A80.47,80.47,0,0,1,3653,231a51.13,51.13,0,0,1,14,9.39,64.1,64.1,0,0,1,17.49,27.06,102.31,102.31,0,0,1,5,31.85,136.54,136.54,0,0,1-1.84,22.46,79.09,79.09,0,0,1-6.44,20.8A66.85,66.85,0,0,1,3669,360.27a60.9,60.9,0,0,1-18.59,13.07,85.74,85.74,0,0,1-16.38,4.6,178.54,178.54,0,0,1-18.59,2.39q-9.58.74-19.14.92t-17.3.18h-18.41V498.52Zm30.56-144.69h29.82a195.77,195.77,0,0,0,28.35-1.84q12.51-1.84,21.17-7.36a35,35,0,0,0,13.25-16.2q4.6-10.67,4.6-28.35,0-16.57-5-26.69A35,35,0,0,0,3639,258.11a56.23,56.23,0,0,0-20.8-6.81,159.57,159.57,0,0,0-26-1.29h-31.66Z" transform="translate(-9.07 -13.99)" style="fill:#727878"/><path d="M3838.76,430.41a94.56,94.56,0,0,1-2.76,28.53,63.75,63.75,0,0,1-11.23,23.38,55.66,55.66,0,0,1-19.7,15.83q-12,5.88-28.17,5.89a65.23,65.23,0,0,1-26.51-5.34q-12.15-5.33-21-17.86t-13.81-33.32q-5-20.8-5-51.73a258,258,0,0,1,2.58-35,129.15,129.15,0,0,1,9.76-35A72.39,72.39,0,0,1,3743,299q12.88-10.67,33.13-10.68,24.66,0,37.74,10.49a57.18,57.18,0,0,1,18.59,26.69,125,125,0,0,1,6.26,35.71q.73,19.52,1.47,37.55h-99.41q.36,10.31.37,24.3a115.16,115.16,0,0,0,2.95,26.51,48.4,48.4,0,0,0,10.49,21.17q7.54,8.65,23,8.65,10.3,0,17.3-4.42a31.21,31.21,0,0,0,10.86-11.41A46.12,46.12,0,0,0,3811,447.9a75.9,75.9,0,0,0,.55-17.49ZM3810,374.82q-.37-8.84-.92-19.7a81.3,81.3,0,0,0-3.5-20.25,35.12,35.12,0,0,0-9.76-15.65q-6.82-6.26-19.33-6.26-12.89,0-19.88,6.26a37.2,37.2,0,0,0-10.31,15.65,80.81,80.81,0,0,0-4.23,20.06q-.92,10.68-1.29,19.88Z" transform="translate(-9.07 -13.99)" style="fill:#727878"/><path d="M3907.09,327.32h.74q9.2-20.24,23-28.9t37-6.81v28.72q-14-2.57-25,.37A42.68,42.68,0,0,0,3924,331a47.58,47.58,0,0,0-11.78,18.41,72.3,72.3,0,0,0-4,25V498.52h-29.08V293.82h28Z" transform="translate(-9.07 -13.99)" style="fill:#727878"/><path d="M4083.66,348.67q.73-18.41-6.44-27.06t-26-8.65q-15.46,0-23.93,7.36t-8.47,23.56q0,9.94,3.68,16a30.82,30.82,0,0,0,9.57,9.94,59,59,0,0,0,13.44,6.44q7.54,2.58,14.91,5.89,11,5.16,21.54,9.57a91.89,91.89,0,0,1,18.78,10.49,47.51,47.51,0,0,1,13.44,15.28q5.15,9.21,5.15,23.56,0,29.46-18.78,46.39T4050.16,504a80.16,80.16,0,0,1-28.17-4.6q-14.55-5-22.64-16.75Q3990.14,470.54,3989,460a202,202,0,0,1-1.1-21.17h27.61q-.74,18.78,6.63,29.64t28,10.86q17.67,0,28.35-7.92t10.68-26.69q0-11-5-17.49a39.4,39.4,0,0,0-12.33-10.49,79.17,79.17,0,0,0-16.38-6.63,139.54,139.54,0,0,1-16.75-5.89q-11.79-4.42-21.17-9a58.5,58.5,0,0,1-15.83-11,41.73,41.73,0,0,1-9.76-15.65q-3.31-9.2-3.31-22.46a62.07,62.07,0,0,1,4.42-23.93,52.61,52.61,0,0,1,12.33-18.22,54.16,54.16,0,0,1,19-11.6,70.14,70.14,0,0,1,24.3-4q30.56,0,47.31,14.36t16,46Z" transform="translate(-9.07 -13.99)" style="fill:#727878"/><path d="M4293.4,389.17q0,33.13-5.15,55.23t-14.73,35.34q-9.58,13.25-23,18.78a79.32,79.32,0,0,1-30.37,5.52,78.25,78.25,0,0,1-30-5.52q-13.44-5.52-23.2-18.78T4152,444.4q-5.16-22.09-5.15-55.23a181.2,181.2,0,0,1,4.42-41.79q4.42-18.59,13.44-31.85a60.23,60.23,0,0,1,22.83-20.25q13.81-7,32.58-7t32.58,7a60.27,60.27,0,0,1,22.83,20.25q9,13.25,13.44,31.85A181.2,181.2,0,0,1,4293.4,389.17Zm-30.19,9.2q0-46.39-10.12-65.9t-33-19.51q-22.46,0-32.77,19.51t-10.31,65.9a245.72,245.72,0,0,0,2,33,93.2,93.2,0,0,0,6.81,25.59A39.58,39.58,0,0,0,4199,473.49q8.28,5.89,21.17,5.89t21.35-5.89a39,39,0,0,0,13.25-16.57,89.61,89.61,0,0,0,6.63-25.59A270.58,270.58,0,0,0,4263.21,398.38Zm-56-176v36.82h-29.08V222.39Zm26.14,36.82V222.39h29.08v36.82Z" transform="translate(-9.07 -13.99)" style="fill:#727878"/><path d="M4359.34,316.28h.74q10.67-13.25,22.64-20.62t28.53-7.36q23.19,0,36.82,12.52t13.62,39.76V498.52h-29.09V348.67q0-16.2-6.44-26T4402.05,313a40.56,40.56,0,0,0-28.72,11.41q-8.84,8.1-11,17.12a84.44,84.44,0,0,0-2.21,20.07v137H4331V293.82h28.35Z" transform="translate(-9.07 -13.99)" style="fill:#727878"/><path d="M4505.84,498.52V222.39h29.09V498.52Z" transform="translate(-9.07 -13.99)" style="fill:#727878"/><path d="M4579,259.21V222.39h29.09v36.82Zm0,239.31V293.82h29.09v204.7Z" transform="translate(-9.07 -13.99)" style="fill:#727878"/><path d="M4715.28,313q-15.83,0-24.12,10.31a62.32,62.32,0,0,0-11.78,24.85,142.71,142.71,0,0,0-3.87,30.19q-.37,15.65-.37,26.69,0,9.94.92,22.83a96.76,96.76,0,0,0,4.79,24.3,50.26,50.26,0,0,0,11.6,19.33q7.73,7.92,21.72,7.92,11.78,0,18.78-4.6a30.08,30.08,0,0,0,10.68-12.15,52.15,52.15,0,0,0,4.79-16.75q1.1-9.2,1.84-18.78h27.61a136.71,136.71,0,0,1-3.68,28.53,76.79,76.79,0,0,1-10.49,24.67,52.94,52.94,0,0,1-18.78,17.3q-11.6,6.44-28.53,6.44-23.57,0-37.55-9a60.69,60.69,0,0,1-21.54-23.75,100.94,100.94,0,0,1-9.94-33.69,309.12,309.12,0,0,1-2.39-38.84,340.31,340.31,0,0,1,2.21-38.29,115.58,115.58,0,0,1,9.57-35.53,66.78,66.78,0,0,1,21.35-26.32q14-10.3,37.55-10.31,15.46,0,26.88,5.52a53.43,53.43,0,0,1,19,15.1,64.73,64.73,0,0,1,11.23,22.27,96.92,96.92,0,0,1,3.68,27.06h-27.25a92.78,92.78,0,0,0-1.47-16.57,45.66,45.66,0,0,0-5.15-14.54,27.74,27.74,0,0,0-10.31-10.31Q4725.59,313,4715.28,313Z" transform="translate(-9.07 -13.99)" style="fill:#727878"/><path d="M4840.82,498.52h-29.09V222.39h29.09v93.88h.74a80.3,80.3,0,0,1,21.91-20.62q12-7.36,28.53-7.36,23.19,0,36.82,12.52t13.62,39.76V498.52h-29.09V348.67q0-16.2-6.44-26T4882.79,313a40.56,40.56,0,0,0-28.72,11.41q-8.84,8.1-11,17.12a84.44,84.44,0,0,0-2.21,20.07Z" transform="translate(-9.07 -13.99)" style="fill:#727878"/><path d="M4986.17,498.52V222.39h29.09V389.17h.74l70-95.36h34.61l-63.33,79.53,65.17,125.18h-33.87l-51.18-102-22.09,29.09v72.9Z" transform="translate(-9.07 -13.99)" style="fill:#727878"/><path d="M5258.69,430.41a94.56,94.56,0,0,1-2.76,28.53,63.75,63.75,0,0,1-11.23,23.38,55.66,55.66,0,0,1-19.7,15.83q-12,5.88-28.17,5.89a65.23,65.23,0,0,1-26.51-5.34q-12.15-5.33-21-17.86t-13.81-33.32q-5-20.8-5-51.73a258,258,0,0,1,2.58-35,129.15,129.15,0,0,1,9.76-35A72.39,72.39,0,0,1,5163,299q12.88-10.67,33.13-10.68,24.66,0,37.74,10.49a57.18,57.18,0,0,1,18.59,26.69,125,125,0,0,1,6.26,35.71q.73,19.52,1.47,37.55h-99.41q.36,10.31.37,24.3a115.16,115.16,0,0,0,2.95,26.51,48.4,48.4,0,0,0,10.49,21.17q7.54,8.65,23,8.65,10.3,0,17.3-4.42a31.21,31.21,0,0,0,10.86-11.41,46.12,46.12,0,0,0,5.16-15.65,75.9,75.9,0,0,0,.55-17.49ZM5230,374.82q-.37-8.84-.92-19.7a81.3,81.3,0,0,0-3.5-20.25,35.12,35.12,0,0,0-9.76-15.65Q5209,313,5196.47,313q-12.89,0-19.88,6.26a37.2,37.2,0,0,0-10.31,15.65,80.81,80.81,0,0,0-4.23,20.06q-.92,10.68-1.29,19.88Z" transform="translate(-9.07 -13.99)" style="fill:#727878"/><path d="M5297.82,259.21V222.39h29.09v36.82Zm0,239.31V293.82h29.09v204.7Z" transform="translate(-9.07 -13.99)" style="fill:#727878"/><path d="M5410.36,293.82h34.24v24.67h-33.87V458q0,2.58-.18,5.34a10.4,10.4,0,0,0,.92,5.15,8.38,8.38,0,0,0,3.87,3.87q2.76,1.48,9,1.47h19.51v24.67h-32a91.59,91.59,0,0,1-12.15-.74,17.89,17.89,0,0,1-9.57-4.23,22.3,22.3,0,0,1-6.26-10.12q-2.21-6.63-2.21-18.41V318.49H5353.3V293.82h28.35V238.22h28.72Z" transform="translate(-9.07 -13.99)" style="fill:#727878"/><path d="M5589.63,430.41a94.56,94.56,0,0,1-2.76,28.53,63.75,63.75,0,0,1-11.23,23.38,55.66,55.66,0,0,1-19.7,15.83q-12,5.88-28.17,5.89a65.23,65.23,0,0,1-26.51-5.34q-12.15-5.33-21-17.86t-13.81-33.32q-5-20.8-5-51.73a258,258,0,0,1,2.58-35,129.15,129.15,0,0,1,9.76-35A72.39,72.39,0,0,1,5493.9,299q12.88-10.67,33.13-10.68,24.66,0,37.74,10.49a57.18,57.18,0,0,1,18.59,26.69,125,125,0,0,1,6.26,35.71q.73,19.52,1.47,37.55h-99.41q.36,10.31.37,24.3a115.16,115.16,0,0,0,2.95,26.51,48.4,48.4,0,0,0,10.49,21.17q7.54,8.65,23,8.65,10.3,0,17.3-4.42a31.21,31.21,0,0,0,10.86-11.41,46.12,46.12,0,0,0,5.16-15.65,75.9,75.9,0,0,0,.55-17.49Zm-28.72-55.59q-.37-8.84-.92-19.7a81.3,81.3,0,0,0-3.5-20.25,35.12,35.12,0,0,0-9.76-15.65q-6.82-6.26-19.33-6.26-12.89,0-19.88,6.26a37.2,37.2,0,0,0-10.31,15.65,80.81,80.81,0,0,0-4.23,20.06q-.92,10.68-1.29,19.88Z" transform="translate(-9.07 -13.99)" style="fill:#727878"/><path d="M5657,316.28h.74q10.67-13.25,22.64-20.62t28.53-7.36q23.19,0,36.82,12.52t13.62,39.76V498.52h-29.09V348.67q0-16.2-6.44-26T5699.7,313A40.56,40.56,0,0,0,5671,324.38q-8.84,8.1-11,17.12a84.44,84.44,0,0,0-2.21,20.07v137h-29.09V293.82H5657Z" transform="translate(-9.07 -13.99)" style="fill:#727878"/><path d="M5989.45,348.67q.73-18.41-6.44-27.06t-26-8.65q-15.46,0-23.93,7.36t-8.47,23.56q0,9.94,3.68,16a30.82,30.82,0,0,0,9.57,9.94,59,59,0,0,0,13.44,6.44q7.54,2.58,14.91,5.89,11,5.16,21.54,9.57a91.89,91.89,0,0,1,18.78,10.49A47.51,47.51,0,0,1,6020,417.52q5.15,9.21,5.15,23.56,0,29.46-18.78,46.39T5955.95,504a80.16,80.16,0,0,1-28.17-4.6q-14.55-5-22.64-16.75-9.21-12.15-10.31-22.64a202,202,0,0,1-1.1-21.17h27.61q-.74,18.78,6.63,29.64t28,10.86q17.67,0,28.35-7.92T5995,444.77q0-11-5-17.49a39.4,39.4,0,0,0-12.33-10.49,79.17,79.17,0,0,0-16.38-6.63,139.54,139.54,0,0,1-16.75-5.89q-11.79-4.42-21.17-9a58.5,58.5,0,0,1-15.83-11,41.73,41.73,0,0,1-9.76-15.65q-3.31-9.2-3.31-22.46a62.07,62.07,0,0,1,4.42-23.93,52.61,52.61,0,0,1,12.33-18.22,54.16,54.16,0,0,1,19-11.6,70.14,70.14,0,0,1,24.3-4q30.56,0,47.31,14.36t16,46Z" transform="translate(-9.07 -13.99)" style="fill:#727878"/><path d="M6098.72,293.82H6133v24.67h-33.87V458q0,2.58-.18,5.34a10.4,10.4,0,0,0,.92,5.15,8.38,8.38,0,0,0,3.87,3.87q2.76,1.48,9,1.47h19.51v24.67h-32a91.59,91.59,0,0,1-12.15-.74,17.89,17.89,0,0,1-9.57-4.23,22.3,22.3,0,0,1-6.26-10.12Q6070,476.8,6070,465V318.49h-28.35V293.82H6070V238.22h28.72Z" transform="translate(-9.07 -13.99)" style="fill:#727878"/><path d="M6295.25,498.52q-1.85.36-3.31.55a13.26,13.26,0,0,0-3.31.92,128.47,128.47,0,0,1-15.65-.18,22.71,22.71,0,0,1-10.86-3.5,18.64,18.64,0,0,1-6.81-8.84q-2.4-5.89-3.5-16.57h-.74a52.66,52.66,0,0,1-7.18,12.7,55,55,0,0,1-10.68,10.68,50.38,50.38,0,0,1-13.07,7.18,41.33,41.33,0,0,1-14.36,2.58q-15.46,0-25.59-4.23a39.42,39.42,0,0,1-16.2-12,45.45,45.45,0,0,1-8.47-18.78,118.46,118.46,0,0,1-2.39-25q0-2.94.55-9.2a50.59,50.59,0,0,1,3.5-13.81,54.57,54.57,0,0,1,8.84-14.73q5.89-7.18,16.57-12,6.25-2.57,16-6.63t19.51-7.92q9.75-3.87,17.12-7t8.84-4.23a12.6,12.6,0,0,0,5.15-9.57q.36-5.89.37-14,0-17.67-7.36-24.85t-25-7.18q-9.94,0-15.83,2.21a18.3,18.3,0,0,0-9,6.81,26.24,26.24,0,0,0-4,11.41,117.79,117.79,0,0,0-.92,15.65h-26.14q-1.1-32,14.17-46.39T6222,288.3q15.09,0,25.22,3.87a48.85,48.85,0,0,1,16.2,9.57,37.84,37.84,0,0,1,9,12.52,67.74,67.74,0,0,1,4.23,13.07,46,46,0,0,1,1.1,10.86c-.13,3.07-.18,5-.18,5.71V461.33q0,4.06.37,8.65a8,8,0,0,0,4.79,6.81,25.57,25.57,0,0,0,6.26.74,50.25,50.25,0,0,0,6.26-.37Zm-47.86-110.45a213.3,213.3,0,0,1-22.46,11.41q-11.79,5.16-23.56,10.68a26.45,26.45,0,0,0-14.17,14.73,56.4,56.4,0,0,0-3.87,20.62q0,15.46,5.52,24.67t23.19,9.21a36.16,36.16,0,0,0,10.13-1.84,33,33,0,0,0,11.6-6.44,38.84,38.84,0,0,0,9.57-12.7q4-8.09,4-20.62Z" transform="translate(-9.07 -13.99)" style="fill:#727878"/><path d="M6360.92,293.82h34.24v24.67h-33.87V458q0,2.58-.18,5.34a10.4,10.4,0,0,0,.92,5.15,8.38,8.38,0,0,0,3.87,3.87q2.76,1.48,9,1.47h19.51v24.67h-32a91.59,91.59,0,0,1-12.15-.74,17.89,17.89,0,0,1-9.57-4.23,22.3,22.3,0,0,1-6.26-10.12q-2.21-6.63-2.21-18.41V318.49h-28.35V293.82h28.35V238.22h28.72Z" transform="translate(-9.07 -13.99)" style="fill:#727878"/><path d="M6470.16,293.82h34.24v24.67h-33.87V458q0,2.58-.18,5.34a10.4,10.4,0,0,0,.92,5.15,8.38,8.38,0,0,0,3.87,3.87q2.76,1.48,9,1.47h19.51v24.67h-32a91.59,91.59,0,0,1-12.15-.74,17.89,17.89,0,0,1-9.57-4.23,22.3,22.3,0,0,1-6.26-10.12q-2.21-6.63-2.21-18.41V318.49h-28.35V293.82h28.35V238.22h28.72Z" transform="translate(-9.07 -13.99)" style="fill:#727878"/><path d="M6635.84,498.52V222.39h72.53q8.09,0,16.75.74a141.6,141.6,0,0,1,17.3,2.58,80.47,80.47,0,0,1,16.38,5.34,51.13,51.13,0,0,1,14,9.39,64.1,64.1,0,0,1,17.49,27.06,102.31,102.31,0,0,1,5,31.85,136.54,136.54,0,0,1-1.84,22.46,79.09,79.09,0,0,1-6.44,20.8,66.85,66.85,0,0,1-12.15,17.67,60.9,60.9,0,0,1-18.59,13.07,85.74,85.74,0,0,1-16.38,4.6,178.54,178.54,0,0,1-18.59,2.39q-9.58.74-19.14.92t-17.3.18H6666.4V498.52Zm30.56-144.69h29.82a195.77,195.77,0,0,0,28.35-1.84q12.51-1.84,21.17-7.36a35,35,0,0,0,13.25-16.2q4.6-10.67,4.6-28.35,0-16.57-5-26.69a35,35,0,0,0-13.81-15.28,56.23,56.23,0,0,0-20.8-6.81,159.57,159.57,0,0,0-26-1.29H6666.4Z" transform="translate(-9.07 -13.99)" style="fill:#727878"/><path d="M6857.22,327.32h.74q9.2-20.24,23-28.9t37-6.81v28.72q-14-2.57-25,.37A42.68,42.68,0,0,0,6874.15,331a47.58,47.58,0,0,0-11.78,18.41,72.3,72.3,0,0,0-4,25V498.52h-29.08V293.82h28Z" transform="translate(-9.07 -13.99)" style="fill:#727878"/><path d="M6944.88,259.21V222.39H6974v36.82Zm0,239.31V293.82H6974v204.7Z" transform="translate(-9.07 -13.99)" style="fill:#727878"/><path d="M7046.6,316.28h.74Q7058,303,7070,295.66t28.53-7.36q23.19,0,36.82,12.52t13.62,39.76V498.52h-29.09V348.67q0-16.2-6.44-26T7089.31,313a40.56,40.56,0,0,0-28.72,11.41q-8.84,8.1-11,17.12a84.44,84.44,0,0,0-2.21,20.07v137h-29.09V293.82h28.35Z" transform="translate(-9.07 -13.99)" style="fill:#727878"/><path d="M7178,498.52V475.69l95-157.95H7182V293.82h121.13v23.93l-95,156.84h95.72v23.93Z" transform="translate(-9.07 -13.99)" style="fill:#727878"/><path d="M7332.81,259.21V222.39h29.09v36.82Zm0,239.31V293.82h29.09v204.7Z" transform="translate(-9.07 -13.99)" style="fill:#727878"/><path d="M7435.12,567.74H7406V293.82h28v22.83h.74q7-14.36,18.41-21a53.41,53.41,0,0,1,23.93-7.36q19.51,0,32.4,8.83a66.43,66.43,0,0,1,20.62,22.64A99.53,99.53,0,0,1,7541,350.15a174.68,174.68,0,0,1,3.13,32.4A396.77,396.77,0,0,1,7541.7,426a142.16,142.16,0,0,1-9.57,39q-7.18,17.31-20.07,28.17T7478.56,504q-15.46,0-25.22-7.18t-17.49-19.7h-.74Zm78.79-175.25q0-9.94-1.1-23.75a112.29,112.29,0,0,0-5.15-26.14,57,57,0,0,0-12-21q-7.92-8.65-21.91-8.65-14.36,0-22.09,8.84a55.64,55.64,0,0,0-11.41,21.72,121,121,0,0,0-4.42,27.06q-.74,14.18-.74,25.22,0,10.68.37,25a111,111,0,0,0,4,27.43,55.8,55.8,0,0,0,11.6,22.09q7.91,9,23,9,22.45,0,31.11-22.64T7513.91,392.49Z" transform="translate(-9.07 -13.99)" style="fill:#727878"/><path d="M7582.13,259.21V222.39h29.09v36.82Zm0,239.31V293.82h29.09v204.7Z" transform="translate(-9.07 -13.99)" style="fill:#727878"/><path d="M7776,430.41a94.56,94.56,0,0,1-2.76,28.53A63.75,63.75,0,0,1,7762,482.32a55.66,55.66,0,0,1-19.7,15.83q-12,5.88-28.17,5.89a65.23,65.23,0,0,1-26.51-5.34q-12.15-5.33-21-17.86t-13.81-33.32q-5-20.8-5-51.73a258,258,0,0,1,2.58-35,129.15,129.15,0,0,1,9.76-35A72.39,72.39,0,0,1,7680.31,299q12.88-10.67,33.13-10.68,24.66,0,37.74,10.49a57.18,57.18,0,0,1,18.59,26.69,125,125,0,0,1,6.26,35.71q.73,19.52,1.47,37.55h-99.41q.36,10.31.37,24.3a115.16,115.16,0,0,0,2.95,26.51,48.4,48.4,0,0,0,10.49,21.17q7.54,8.65,23,8.65,10.3,0,17.3-4.42a31.21,31.21,0,0,0,10.86-11.41,46.12,46.12,0,0,0,5.16-15.65,75.9,75.9,0,0,0,.55-17.49Zm-28.72-55.59q-.37-8.84-.92-19.7a81.3,81.3,0,0,0-3.5-20.25,35.12,35.12,0,0,0-9.76-15.65q-6.82-6.26-19.33-6.26-12.89,0-19.88,6.26a37.2,37.2,0,0,0-10.31,15.65,80.81,80.81,0,0,0-4.23,20.06q-.92,10.68-1.29,19.88Z" transform="translate(-9.07 -13.99)" style="fill:#727878"/><path d="M7843.41,316.28h.74q10.67-13.25,22.64-20.62t28.53-7.36q23.19,0,36.82,12.52t13.62,39.76V498.52h-29.09V348.67q0-16.2-6.44-26T7886.12,313a40.56,40.56,0,0,0-28.72,11.41q-8.84,8.1-11,17.12a84.44,84.44,0,0,0-2.21,20.07v137h-29.09V293.82h28.35Z" transform="translate(-9.07 -13.99)" style="fill:#727878"/><path d="M7992.44,498.52V461.7h33.5v36.82Z" transform="translate(-9.07 -13.99)" style="fill:#727878"/></svg>